<svg xmlns="http://www.w3.org/2000/svg" viewBox="0 0 495.7 376.5"><defs><style>.cls-1,.cls-2,.cls-3{fill:#fff;}.cls-1,.cls-2{fill-rule:evenodd;}.cls-2{stroke:#fff;stroke-linecap:round;stroke-linejoin:round;stroke-width:2px;}</style></defs><title>RCN_Radio_logo_blanco</title><g id="Capa_2" data-name="Capa 2"><g id="Fondo"><path class="cls-1" d="M25.25,0C50,0,80.6,3,103.45,8.25a139.71,139.71,0,0,1,22.09,7.05C157.7,28.4,183.85,56,188.35,56c6,0,36-14,63-14A136.78,136.78,0,0,1,360.84,97.6c-8.19,5.3-17.25,11.3-26.59,16.4C313.84,85.15,276,74,251.35,74c-36,0-86.5,20.35-86.5,70,0,53.35,57.65,67,89,67,27.4,0,59.1-6.8,84.4-39l24.59,13.35c-5.94,10.15-21.14,29.2-32,34.25C352.59,242.25,401,261,427.5,261.05H470V25.85H411.59V110C379.4,32,295.84,2.35,239.85,2.5c9.44-1.5,26.5-2.5,29-2.5,35.9,0,82.74,7.5,114.49,37,.66-.85.5-2.5-.34-35.85H495.7V287.9H441.5c-2.5.1-22.5-2.15-33.25-4.3C345.5,270.85,312.09,233,307.84,233c-2.25,0-38.24,11-54,11-51.35,0-123-29.5-123-100.5,0-22.5,8.1-51.4,34-72C125.64,33,88.35,27,47.35,27c-2.5,0-15.06,1-22.65-.15v235.3H84.14V180c30.31,76.05,115,105.1,170.71,106.45-9.46,1.55-26.5,1.55-29,1.55-35.85,0-82.71-7.5-114.46-36-.69.85-.54,2.45.21,35.85H0V.15C8.35,0,22.75,0,25.25,0Z"/><path class="cls-2" d="M250.85,43c37,0,72.74,10.4,109,53.55-7.14,6.3-16.2,12.35-24.54,17.45-25.3-30.45-57.3-40-84-40-36,0-86.5,19.35-86.5,70,0,53.1,57.5,68,89.5,68,24.9,0,62-9.95,83.4-40l25.09,13.35c-28.7,44.05-73.49,58.65-109,58.65-51.35,0-123-30.5-123-100.5C130.85,71.5,200.85,43,250.85,43Z"/><path class="cls-1" d="M77.26,340.37V325.75a10.3,10.3,0,0,1,1.74-.29c.76-.07,1.7-.1,2.83-.1a10.63,10.63,0,0,1,3.66.61,6.9,6.9,0,0,1,3.35,2.47,5.74,5.74,0,0,1,1.47,4.26c0,2.56-.84,3.61-2.46,5.21a9.68,9.68,0,0,1-6.9,2.46Zm16.89,6.27a16.18,16.18,0,0,0,10.24-15.13q-.11-6.27-2.66-9.9a15.06,15.06,0,0,0-6.45-5.31,27.86,27.86,0,0,0-8-2.15,58,58,0,0,0-7.3-.4c-3.22,0-6.27.13-9.13.37s-5.39.54-7.58.9V375.7h14v-24H80a6.71,6.71,0,0,1,5.39,1.93c1.26,1.36,2.22,3.88,2.86,7.55s1.4,6.77,2.09,9.31A38.59,38.59,0,0,0,92,375.7h14.56a24.69,24.69,0,0,1-1.36-4.05c-.51-1.86-1-3.95-1.58-6.28L102,358.5a24.14,24.14,0,0,0-2.87-7.35,10.26,10.26,0,0,0-5-4.19Z"/><path class="cls-1" d="M150.73,363.13a23.19,23.19,0,0,1-4.09,1,31.69,31.69,0,0,1-4.87.41q-7.59,0-12-4.95t-4.46-14.56q.19-10.35,4.84-15.16a15.11,15.11,0,0,1,11.49-4.76,23.18,23.18,0,0,1,5.17.56,19.27,19.27,0,0,1,3.79,1.27l2.56-11.38a17.48,17.48,0,0,0-4.48-1.47,39,39,0,0,0-7.84-.76A32.18,32.18,0,0,0,126,316.87a27.16,27.16,0,0,0-11.06,10.74q-4.2,7.22-4.32,18.23a37.18,37.18,0,0,0,3.13,15.53,25,25,0,0,0,9.55,11q6.41,4.07,16.2,4.16a45.72,45.72,0,0,0,8-.68,22.85,22.85,0,0,0,5.05-1.39Z"/><path class="cls-1" d="M206.4,314.15H193.76V328.8q0,7.71.33,14.63T195,355.8h-.16Q193,351,190.74,345.73t-4.42-9.52l-10.57-22.06h-15V375.7h12.63V360.57q0-8.25-.21-15.21T172.63,333H173q1.74,4.91,4.08,10.33t4.57,10l10.8,22.37h14Z"/><path class="cls-1" d="M227.74,341h14a17,17,0,0,0,7-1.15,7.86,7.86,0,0,0,3.82-3.69,11.87,11.87,0,0,0,1.3-5.51,10.29,10.29,0,0,0-2.52-7.16c-1.69-1.88-4.35-2.81-8-2.81H227.74Zm-6.53,34.31V313.9h21.86c4.38,0,7.72.55,10,1.66a12,12,0,0,1,5.47,5.84,20.66,20.66,0,0,1,2.05,9.25,17.71,17.71,0,0,1-3.39,11q-3.38,4.48-10.47,5.7a16.49,16.49,0,0,1,3.93,3.06,40.79,40.79,0,0,1,5.4,8.17l8.52,16.73h-8.15l-6.51-12.79Q247,357,245.2,354.06a16.91,16.91,0,0,0-3.3-4.1,9,9,0,0,0-3-1.63,15.51,15.51,0,0,0-3.64-.29h-7.55v27.27Z"/><path class="cls-1" d="M281.71,350.1h16.8l-5.15-17q-2.32-7.76-3.52-12.83a102.89,102.89,0,0,1-2.73,11.83Zm-14.19,25.21,18.91-61.41h7.17l20.08,61.41h-7.42l-5.71-18.61H279.78l-5.34,18.61Z"/><path class="cls-1" d="M326.92,368.11h10.51a20.7,20.7,0,0,0,7.64-1.13,10.65,10.65,0,0,0,4.41-3.19A20.84,20.84,0,0,0,353.1,356a47.09,47.09,0,0,0,1.29-11.86q0-9.65-2.54-14.83t-6.16-6.95q-2.62-1.26-8.43-1.26H326.92Zm-6.54,7.2V313.9h17a33.4,33.4,0,0,1,8.78.88,15.67,15.67,0,0,1,7.23,4.39,25.94,25.94,0,0,1,5.84,10.49,50.7,50.7,0,0,1,1.93,14.6,52.63,52.63,0,0,1-1.31,12.4,33.51,33.51,0,0,1-3.36,8.94,20.44,20.44,0,0,1-4.48,5.58,16.84,16.84,0,0,1-5.89,3.08,27.35,27.35,0,0,1-7.92,1Z"/><rect class="cls-3" x="373.34" y="313.9" width="6.54" height="61.41"/><path class="cls-1" d="M396.85,345.57q0,11.07,4.79,17.45t12,6.37q7.35,0,12.11-6.43t4.76-18.27a38.18,38.18,0,0,0-2-13.06,18.93,18.93,0,0,0-5.95-8.65,13.89,13.89,0,0,0-8.79-3.08q-6.92,0-11.92,5.92T396.85,345.57Zm-6.75-.14q0-15.27,6.6-23.92t17-8.64A20.18,20.18,0,0,1,426,316.93a25.23,25.23,0,0,1,8.36,11.31,44.42,44.42,0,0,1,2.88,16.46,43.54,43.54,0,0,1-3,16.7,24.18,24.18,0,0,1-8.57,11.15,20.86,20.86,0,0,1-12,3.79,20,20,0,0,1-12.45-4.18,25.75,25.75,0,0,1-8.3-11.42A41.63,41.63,0,0,1,390.1,345.42Z"/></g></g></svg>